<svg width="20" height="20" viewBox="0 0 20 20" fill="none" xmlns="http://www.w3.org/2000/svg">
<path d="M11.6122 19.8699C11.5289 19.8835 11.4453 19.896 11.3613 19.9074C11.4453 19.896 11.5289 19.8835 11.6122 19.8699Z" fill="white"/>
<path d="M11.8123 19.8357C11.7725 19.843 11.7327 19.8497 11.6929 19.8566C11.7327 19.8497 11.7725 19.843 11.8123 19.8357Z" fill="white"/>
<path d="M11.1388 19.9352C11.0413 19.9462 10.9431 19.9559 10.8447 19.9642C10.9431 19.9559 11.0413 19.9462 11.1388 19.9352Z" fill="white"/>
<path d="M11.33 19.9116C11.2831 19.9179 11.236 19.9237 11.189 19.9292C11.236 19.9237 11.2831 19.9179 11.33 19.9116Z" fill="white"/>
<path d="M12.0851 19.7816C12.05 19.7891 12.0147 19.7966 11.9795 19.8037C12.0147 19.7966 12.05 19.7891 12.0851 19.7816Z" fill="white"/>
<path d="M12.7599 19.6138C12.7316 19.6219 12.7032 19.6295 12.6748 19.6374C12.7032 19.6295 12.7316 19.6219 12.7599 19.6138Z" fill="white"/>
<path d="M12.5562 19.6697C12.5253 19.6778 12.4944 19.686 12.4634 19.6938C12.4944 19.686 12.5253 19.6779 12.5562 19.6697Z" fill="white"/>
<path d="M12.2885 19.7365C12.2559 19.7441 12.2229 19.7513 12.1899 19.7586C12.2229 19.7513 12.2559 19.7441 12.2885 19.7365Z" fill="white"/>
<path d="M10.8407 19.9645C10.7881 19.9689 10.7354 19.9729 10.6826 19.9764C10.7354 19.9729 10.7881 19.9689 10.8407 19.9645Z" fill="white"/>
<path d="M20 10C20 4.478 15.522 0 10 0C4.478 0 0 4.478 0 10C0 15.522 4.478 20 10 20C10.0587 20 10.1172 19.9988 10.1758 19.9977V12.2131H8.02734V9.70932H10.1758V7.86682C10.1758 5.72998 11.4803 4.56696 13.3864 4.56696C14.2992 4.56696 15.0838 4.63501 15.3125 4.66537V6.89865H13.9981C12.9611 6.89865 12.7603 7.39151 12.7603 8.11462V9.70932H15.2399L14.9167 12.2131H12.7603V19.6136C16.9402 18.4154 20 14.5645 20 10Z" fill="white"/>
<path d="M10.6606 19.9778C10.5565 19.9845 10.452 19.9898 10.3472 19.9933C10.452 19.9898 10.5565 19.9845 10.6606 19.9778Z" fill="white"/>
<path d="M10.3418 19.9937C10.2866 19.9955 10.2312 19.9969 10.1758 19.9978C10.2312 19.9969 10.2866 19.9955 10.3418 19.9937Z" fill="white"/>
</svg>
