<svg width="317" height="522" fill="none" xmlns="http://www.w3.org/2000/svg"><path d="M187.659 384.519V79.784h-11.647c-8.852 76.784-47.988 110.377-122.532 110.377H.833V80.264h47.988c69.885 0 107.157-29.273 107.157-80.142h159.804v384.397H187.659z" fill="#FB4073"/><path d="M1.979 479.279v-32.938h15.308l-2.892 10.512h1.446c3.657-8.672 8.08-12.001 16.413-12.001 9.1 0 13.693 4.555 13.693 12.965v6.57H30.383v-3.329c0-4.029-1.7-6.132-5.953-6.132-4.507 0-6.803 2.891-6.803 7.709v16.644H1.979zM99.44 459.482v19.797H84.642l2.467-8.935h-1.361c-2.381 7.096-8.334 10.424-18.54 10.424-5.698 0-9.525-1.226-11.65-3.504-1.532-1.576-2.297-3.679-2.297-6.307 0-2.54.765-4.555 2.381-6.219 2.211-2.278 5.953-3.68 11.056-4.03l17.35-.964v-1.138c0-3.504-2.637-5.256-7.74-5.256-7.74 0-7.994 4.029-8.08 4.818v.087H52.667c.17-1.927.935-13.403 23.812-13.403 15.563-.087 22.962 4.731 22.962 14.63zm-15.563 6.307l-10.46.701c-1.701.175-2.977.7-3.743 1.401-.51.526-.68 1.227-.68 2.015s.17 1.489.68 2.015c.68.701 2.127 1.139 4.338 1.139 8.08 0 9.865-4.994 9.865-7.271zM108.285 479.279v-13.14l23.727-9.373v-1.401h-23.727v-9.111h42.352v13.14l-23.898 9.373v1.402h23.983v9.11h-42.437zM159.566 471.658c-1.7-2.541-2.551-5.519-2.551-8.848 0-3.416.936-6.395 2.551-8.847 3.828-5.782 12.162-9.111 23.558-9.111 11.396 0 19.73 3.417 23.557 9.111 1.701 2.54 2.637 5.518 2.637 8.847 0 3.417-.936 6.395-2.637 8.848-3.827 5.781-12.161 9.11-23.557 9.11-11.396 0-19.73-3.329-23.558-9.11zm32.658-4.117c.85-1.314 1.275-2.891 1.275-4.731 0-1.839-.425-3.416-1.275-4.73-1.616-2.365-4.678-3.767-9.1-3.767-4.337 0-7.484 1.402-9.1 3.767-.85 1.314-1.276 2.891-1.276 4.73 0 1.84.426 3.417 1.276 4.731 1.616 2.365 4.763 3.766 9.1 3.766 4.422 0 7.484-1.401 9.1-3.766zM226.412 479.279l-14.713-32.937h16.244l9.27 22.863.68 4.03h1.446l.68-4.03 9.355-22.863h16.244l-14.883 32.937h-24.323zM316.9 468.942c-1.871 7.184-10.886 11.826-24.068 11.826-10.631 0-18.795-3.153-22.537-8.672-1.701-2.541-2.551-5.694-2.551-9.286 0-3.679.935-6.832 2.636-9.373 3.827-5.606 11.566-8.76 22.197-8.76 15.393 0 24.323 6.57 24.323 18.133v2.541h-34.188c.255 1.489.68 2.715 1.36 3.679 1.531 2.277 4.508 3.416 8.76 3.416 4.592 0 7.314-1.314 8.845-3.679H316.9v.175zm-33.083-12.614a9.21 9.21 0 00-1.19 2.803h19.305c-.34-3.854-3.317-6.307-9.44-6.307-4.082 0-7.144 1.139-8.675 3.504zM5.89 505.133l-2.648-6.449V505.05H1.877v-8.02h1.846l2.649 6.449 2.649-6.449h1.846v8.02H9.502v-5.953l.08-.413h-.08l-2.648 6.449H5.89zM18.332 502.818h1.284c-.08.413-.24.827-.481 1.24-.24.414-.562.744-1.044.992-.481.248-1.123.414-1.846.414-.883 0-1.766-.248-2.649-.827s-1.284-1.654-1.284-3.473c0-.909.16-1.653.401-2.315.241-.661.723-1.157 1.285-1.488.562-.331 1.284-.496 2.087-.496.883 0 1.605.165 2.087.579.481.413.883.909 1.123 1.571.241.661.321 1.488.402 2.48h-5.94c0 .744.16 1.406.562 2.067.401.662 1.043.91 1.846.91.562 0 1.043-.166 1.445-.497.401-.33.642-.661.722-1.157zm-4.575-2.315h4.575c0-.662-.16-1.323-.481-1.819-.322-.579-.883-.827-1.686-.827-.562 0-1.044.166-1.365.414-.32.248-.642.578-.802.992-.16.413-.241.827-.241 1.24zM20.098 504.224h.963c.321-.414.482-.91.722-1.406.16-.496.321-.992.402-1.488.08-.496.16-.992.16-1.406v-2.645h5.539v7.027h1.364l-.08 3.06h-1.124v-2.067h-6.662v2.067h-1.124l-.16-3.142zm6.421-6.036h-2.97v1.075c0 .909-.08 1.819-.32 2.728a7.136 7.136 0 01-.804 2.233h4.094v-6.036zM31.496 503.562l4.013-6.366h1.526v8.02H35.67v-6.449l-4.014 6.366h-1.525v-8.02h1.365v6.449zM38.48 497.196h1.365v2.48c0 .331 0 .579.08.744.08.166.24.331.481.414.241.082.643.165 1.205.165h1.444v-3.721h1.365v8.02h-1.365v-3.307c-.722 0-1.284.083-1.766.083-.883 0-1.525-.083-1.926-.248-.401-.165-.642-.414-.722-.662a3.769 3.769 0 01-.161-1.074v-2.894zM47.71 501.413v3.72h-1.364v-8.02h1.364v3.307h3.853v-3.307h1.365v8.02h-1.365v-3.72H47.71zM54.774 495.625v-1.406h1.364v1.406h-1.364zm0 1.571h1.364v8.02h-1.364v-8.02zM1.877 510.425h3.692c1.606 0 2.489.661 2.489 1.901 0 .496-.16.91-.402 1.24-.24.331-.642.496-.963.579v.083c.642.165 1.124.413 1.365.744.24.331.401.827.401 1.323 0 .827-.24 1.323-.722 1.653-.482.331-1.204.414-2.007.414H2.118v-7.937h-.241zm1.365.992v2.397h1.846c.562 0 .963-.165 1.204-.413.24-.248.32-.496.32-.827 0-.744-.48-1.157-1.524-1.157H3.242zm0 3.307v2.728h2.006c1.124 0 1.766-.413 1.766-1.24 0-.992-.562-1.488-1.766-1.488H3.242zM11.188 516.791l4.013-6.366h1.525v8.02h-1.364v-6.449l-4.014 6.366H9.823v-8.02h1.365v6.449zM18.653 510.425h1.284v1.075c.642-.91 1.525-1.406 2.569-1.406.562 0 1.043.083 1.445.248.4.165.802.496 1.123.827.321.331.562.827.723 1.323.16.496.24 1.157.24 1.819 0 .909-.16 1.736-.481 2.315-.321.661-.723 1.157-1.204 1.488a3.358 3.358 0 01-1.766.496c-.562 0-1.043-.165-1.525-.413a2.23 2.23 0 01-1.044-1.075v4.051h-1.364v-10.748zm1.204 3.968c0 .744.08 1.323.32 1.819.242.496.483.827.884 1.075s.722.331 1.204.331c.642 0 1.204-.248 1.605-.827.402-.579.642-1.405.642-2.48 0-.744-.08-1.323-.32-1.819a2.465 2.465 0 00-.803-1.158 2.121 2.121 0 00-1.204-.413c-.642 0-1.124.248-1.606.744-.481.496-.722 1.488-.722 2.728zM27.001 514.393c0-.909.16-1.653.482-2.315.32-.661.722-1.157 1.284-1.488.562-.331 1.284-.496 2.007-.496.561 0 1.123.083 1.605.331s.883.496 1.204.827c.321.33.562.826.722 1.322.161.496.241 1.158.241 1.819a6.62 6.62 0 01-.24 1.819c-.161.579-.402.992-.723 1.323-.321.414-.722.662-1.204.827-.482.165-1.043.331-1.605.331s-1.124-.083-1.606-.331c-.481-.165-.883-.496-1.204-.827a3.848 3.848 0 01-.722-1.405c-.16-.496-.241-1.075-.241-1.737zm1.445 0c0 .579.08 1.075.24 1.571.161.496.402.91.723 1.24.321.331.803.497 1.445.497s1.124-.166 1.445-.497c.32-.33.642-.744.722-1.24.16-.496.24-1.075.24-1.571 0-.578-.08-1.075-.24-1.571a3.133 3.133 0 00-.722-1.24c-.321-.33-.803-.496-1.445-.496-.883 0-1.525.331-1.846.992-.321.662-.562 1.406-.562 2.315zM41.85 506.869h1.124c0 .496-.16.827-.481 1.075-.24.248-.562.414-.883.496-.321.083-.722.166-1.284.248-.723.083-1.285.166-1.766.331-.482.165-.883.496-1.204.992-.321.496-.482 1.158-.562 2.15h.08c.16-.496.482-.992.963-1.406.482-.413 1.124-.661 2.007-.661.722 0 1.284.165 1.846.496a3.465 3.465 0 011.365 1.488c.32.662.481 1.489.481 2.481 0 .826-.16 1.571-.481 2.232-.321.661-.723 1.075-1.365 1.488-.562.331-1.284.496-2.006.496-.402 0-.803-.082-1.205-.165-.4-.083-.802-.331-1.204-.661-.4-.331-.802-.91-1.043-1.654-.24-.744-.401-1.736-.401-2.894 0-1.24.08-2.232.32-2.976.241-.744.563-1.323.884-1.737a2.927 2.927 0 011.364-.826c.482-.166 1.124-.248 1.846-.331.562-.083.964-.166 1.204-.248.241-.083.322-.248.402-.414zm-4.494 7.69c0 1.24.24 2.067.802 2.563.482.413 1.044.661 1.686.661 1.605 0 2.408-1.075 2.408-3.142 0-.578-.08-1.157-.16-1.653-.161-.496-.402-.992-.723-1.323-.321-.331-.883-.579-1.525-.579-.24 0-.562.083-.963.165a2.32 2.32 0 00-1.044.993c-.32.496-.481 1.323-.481 2.315zM46.506 516.791l4.014-6.366h1.525v8.02H50.68v-6.449l-4.013 6.366h-1.525v-8.02h1.364v6.449zM218.416 501.991c0-.909.16-1.653.481-2.315.321-.661.723-1.157 1.284-1.488.562-.331 1.285-.496 2.007-.496.562 0 1.124.083 1.606.248.481.165.883.496 1.204.827.321.331.562.827.722 1.323.161.496.241 1.157.241 1.819 0 .661-.08 1.24-.241 1.819-.16.496-.401.992-.722 1.323-.321.413-.723.661-1.204.826-.482.166-1.044.331-1.606.331s-1.124-.083-1.605-.331c-.482-.165-.883-.496-1.204-.826-.321-.331-.562-.827-.723-1.406-.16-.413-.24-.992-.24-1.654zm1.444 0c0 .579.081 1.075.241 1.571.161.496.402.91.723 1.24.321.331.802.497 1.444.497.643 0 1.124-.166 1.445-.497.321-.33.642-.744.723-1.24.16-.496.241-1.075.241-1.571a4.97 4.97 0 00-.241-1.571 3.141 3.141 0 00-.723-1.24c-.321-.33-.802-.496-1.445-.496-.882 0-1.525.331-1.846.992-.401.579-.562 1.406-.562 2.315zM226.442 505.051h.964c.321-.414.481-.91.722-1.406.241-.496.321-.992.401-1.488.081-.496.161-.992.161-1.406v-2.646h5.538v7.028h1.365l-.08 3.06h-1.124v-2.068h-6.662v2.068h-1.204l-.081-3.142zm6.422-6.036h-2.97v1.075c0 .909-.08 1.819-.321 2.728a7.151 7.151 0 01-.803 2.233h4.094v-6.036zM237.76 502.239v3.721h-1.364v-8.02h1.364v3.307h3.853v-3.307h1.365v8.02h-1.365v-3.721h-3.853zM244.423 501.991c0-.909.16-1.653.481-2.315.322-.661.723-1.157 1.285-1.488.562-.331 1.284-.496 2.006-.496.562 0 1.124.083 1.606.248.481.165.883.496 1.204.827.321.331.562.827.722 1.323.161.496.241 1.157.241 1.819 0 .661-.08 1.24-.241 1.819-.16.496-.401.992-.722 1.323-.321.413-.723.661-1.204.826-.482.166-1.044.331-1.606.331-.561 0-1.123-.083-1.605-.331-.481-.165-.883-.496-1.204-.826-.321-.331-.562-.827-.722-1.406-.161-.413-.241-.992-.241-1.654zm1.445 0c0 .579.08 1.075.241 1.571.16.496.401.91.722 1.24.321.331.803.497 1.445.497s1.124-.166 1.445-.497c.321-.33.642-.744.722-1.24a5.32 5.32 0 00.241-1.571 4.94 4.94 0 00-.241-1.571 3.14 3.14 0 00-.722-1.24c-.321-.33-.803-.496-1.445-.496-.883 0-1.525.331-1.846.992-.402.579-.562 1.406-.562 2.315zM253.493 498.023h1.284v1.075c.643-.91 1.526-1.406 2.569-1.406.562 0 1.044.083 1.445.248.401.165.803.496 1.124.827.321.331.562.827.722 1.323.161.496.241 1.157.241 1.819 0 .909-.161 1.736-.482 2.315-.321.661-.722 1.157-1.204 1.488a3.36 3.36 0 01-1.766.496c-.562 0-1.043-.165-1.525-.413a2.233 2.233 0 01-1.043-1.075v4.051h-1.365v-10.748zm1.284 3.968c0 .745.081 1.323.322 1.819.24.496.481.827.883 1.075.401.248.722.331 1.204.331.642 0 1.204-.248 1.605-.827s.642-1.405.642-2.48c0-.744-.08-1.323-.321-1.819a2.47 2.47 0 00-.803-1.158 2.12 2.12 0 00-1.204-.413c-.642 0-1.123.248-1.605.744-.482.661-.723 1.488-.723 2.728zM263.366 500.338h-1.284c0-.496.08-.91.321-1.323a2.475 2.475 0 011.043-.992c.482-.248 1.124-.414 1.927-.414 2.087 0 3.05.91 3.05 2.729l-.08 3.72c0 .248 0 .497.08.579 0 .166.08.248.241.248.16 0 .321.083.562.083v.992c-.161 0-.402.083-.643.083-.401 0-.722-.083-.963-.248-.241-.166-.401-.496-.401-.91a2.72 2.72 0 01-1.204 1.158 4.436 4.436 0 01-1.445.248c-1.124 0-1.846-.248-2.248-.744-.401-.496-.481-1.075-.481-1.654 0-.331.08-.661.16-.909.081-.248.241-.496.562-.745.321-.248.642-.413 1.124-.578.482-.166 1.124-.248 1.926-.331.482-.083.803-.083.964-.083.16 0 .321-.082.401-.248.08-.165.161-.413.161-.744 0-.661-.161-1.157-.562-1.323-.402-.165-.803-.33-1.124-.33a2.77 2.77 0 00-1.365.33c-.481.248-.722.744-.722 1.406zm3.692 2.232v-.661c-.16.082-.241.165-.401.165-.08 0-.321.083-.642.083-.642.082-1.204.165-1.606.248-.401.083-.722.248-.963.496s-.321.579-.321.992c0 .331.08.662.321.992.241.331.642.496 1.204.496.642 0 1.124-.165 1.525-.496.321-.33.562-.661.723-1.075.08-.413.16-.826.16-1.24zM269.868 503.562h1.284c0 .496.161.91.562 1.24.321.331.883.579 1.525.579.643 0 1.124-.165 1.526-.413.401-.248.561-.662.561-1.158 0-.992-.561-1.405-1.765-1.405h-1.124v-.992h.963c1.044 0 1.605-.414 1.605-1.241 0-.413-.16-.744-.401-.992-.241-.248-.722-.413-1.365-.413-.722 0-1.204.165-1.444.496-.241.331-.402.661-.402 1.075h-1.284c0-.414.161-.827.321-1.24.161-.414.482-.662.963-.91.482-.248 1.124-.331 1.846-.331.803 0 1.445.083 1.847.331.481.248.802.496.963.91.16.33.241.744.241 1.074 0 .496-.161.91-.402 1.241-.24.248-.562.496-.963.496v.082c.241.083.482.166.803.331.321.165.481.413.642.661.161.331.241.662.241 1.075 0 .579-.241 1.158-.723 1.654-.481.496-1.364.744-2.568.744a5.252 5.252 0 01-2.248-.496c-.722-.331-1.124-1.323-1.204-2.398zM277.654 501.991c0-.909.16-1.653.481-2.315.321-.661.723-1.157 1.285-1.488.562-.331 1.284-.496 2.006-.496.562 0 1.124.083 1.606.248.481.165.883.496 1.204.827.321.331.562.827.722 1.323.161.496.241 1.157.241 1.819 0 .661-.08 1.24-.241 1.819-.16.496-.401.992-.722 1.323-.321.413-.723.661-1.204.826-.482.166-1.044.331-1.606.331-.561 0-1.123-.083-1.605-.331s-.883-.496-1.204-.826a3.846 3.846 0 01-.722-1.406c-.161-.413-.241-.992-.241-1.654zm1.445 0c0 .579.08 1.075.24 1.571.161.496.402.91.723 1.24.321.331.803.497 1.445.497s1.123-.166 1.445-.497c.321-.33.642-.744.722-1.24a5.32 5.32 0 00.241-1.571 4.94 4.94 0 00-.241-1.571 3.14 3.14 0 00-.722-1.24c-.322-.33-.803-.496-1.445-.496-.883 0-1.525.331-1.846.992-.402.579-.562 1.406-.562 2.315zM286.805 498.023h3.692c1.605 0 2.488.661 2.488 1.902 0 .496-.16.909-.401 1.24-.241.331-.642.496-.963.579v.082c.642.166 1.124.414 1.364.744.241.331.402.827.402 1.323 0 .827-.241 1.323-.723 1.654-.481.331-1.204.413-2.006.413h-3.613v-7.937h-.24zm1.284.992v2.398h1.846c.562 0 .963-.166 1.204-.414.241-.248.321-.496.321-.826 0-.744-.481-1.158-1.525-1.158h-1.846zm0 3.307v2.729h2.007c1.123 0 1.766-.414 1.766-1.24 0-.993-.562-1.489-1.766-1.489h-2.007zM294.27 501.991c0-.909.16-1.653.481-2.315.321-.661.723-1.157 1.284-1.488.562-.331 1.285-.496 2.007-.496.562 0 1.124.083 1.606.248.481.165.883.496 1.204.827.321.331.561.827.722 1.323.161.496.241 1.157.241 1.819 0 .661-.08 1.24-.241 1.819-.161.496-.401.992-.722 1.323-.321.413-.723.661-1.204.826-.482.166-1.044.331-1.606.331s-1.124-.083-1.605-.331c-.482-.248-.883-.496-1.204-.826a3.863 3.863 0 01-.723-1.406c-.16-.413-.24-.992-.24-1.654zm1.444 0c0 .579.081 1.075.241 1.571.161.496.402.91.723 1.24.321.331.802.497 1.444.497.643 0 1.124-.166 1.445-.497.321-.33.642-.744.723-1.24.16-.496.241-1.075.241-1.571a4.97 4.97 0 00-.241-1.571 3.141 3.141 0 00-.723-1.24c-.321-.33-.802-.496-1.445-.496-.882 0-1.525.331-1.846.992-.401.579-.562 1.406-.562 2.315zM304.704 499.015v7.028h-1.364v-8.02h5.298v.992h-3.934zM309.28 501.991c0-.909.161-1.653.482-2.315.321-.661.722-1.157 1.284-1.488.562-.331 1.284-.496 2.007-.496.562 0 1.124.083 1.605.248.482.165.883.496 1.204.827.321.331.562.827.723 1.323.16.496.241 1.157.241 1.819 0 .661-.081 1.24-.241 1.819-.161.496-.402.992-.723 1.323-.321.413-.722.661-1.204.826-.481.166-1.043.331-1.605.331s-1.124-.083-1.605-.331c-.482-.248-.883-.496-1.204-.826a3.847 3.847 0 01-.723-1.406c-.16-.413-.241-.992-.241-1.654zm1.365 0c0 .579.08 1.075.241 1.571.16.496.401.91.722 1.24.321.331.803.497 1.445.497s1.124-.166 1.445-.497c.321-.33.642-.744.722-1.24a5.32 5.32 0 00.241-1.571 4.94 4.94 0 00-.241-1.571 3.128 3.128 0 00-.722-1.24c-.321-.33-.803-.496-1.445-.496-.883 0-1.525.331-1.846.992-.321.579-.562 1.406-.562 2.315zM218.897 511.252h3.693c1.605 0 2.488.661 2.488 1.901 0 .496-.16.91-.401 1.241-.241.33-.642.496-.963.578v.083c.642.165 1.123.413 1.364.744.241.331.402.827.402 1.323 0 .827-.241 1.323-.723 1.654-.482.33-1.204.413-2.007.413h-3.612v-7.937h-.241zm1.285.992v2.398h1.846c.562 0 .963-.166 1.204-.414.241-.248.321-.496.321-.827 0-.744-.482-1.157-1.525-1.157h-1.846zm0 3.307v2.729h2.006c1.124 0 1.766-.414 1.766-1.241 0-.992-.561-1.488-1.766-1.488h-2.006zM228.128 517.618l4.013-6.366h1.525v8.02h-1.364v-6.449l-4.014 6.366h-1.525v-8.02h1.365v6.449zM236.958 514.724l3.291-3.472h1.606l-3.613 3.72 3.853 4.3h-1.605l-3.452-3.969v3.969h-1.364v-8.02h1.364v3.472h-.08zM242.335 515.22c0-.909.161-1.653.482-2.315.321-.661.722-1.157 1.284-1.488.562-.331 1.285-.496 2.007-.496.562 0 1.124.083 1.605.248.482.165.883.496 1.205.827.321.331.561.827.722 1.323.16.496.241 1.157.241 1.819 0 .661-.081 1.24-.241 1.819-.161.496-.401.992-.722 1.323-.322.413-.723.661-1.205.826-.481.166-1.043.331-1.605.331s-1.124-.083-1.605-.331c-.482-.248-.883-.496-1.204-.826a3.863 3.863 0 01-.723-1.406c-.16-.413-.241-.992-.241-1.654zm1.445 0c0 .579.081 1.075.241 1.571.161.496.401.91.723 1.24.321.331.802.497 1.444.497.643 0 1.124-.166 1.445-.497.321-.33.642-.744.723-1.24.16-.496.24-1.075.24-1.571a4.97 4.97 0 00-.24-1.571 3.141 3.141 0 00-.723-1.24c-.321-.33-.802-.496-1.445-.496-.883 0-1.525.331-1.846.992-.401.579-.562 1.406-.562 2.315zM251.486 511.252h1.285v1.075c.642-.91 1.525-1.406 2.568-1.406.562 0 1.044.083 1.445.248.401.165.803.496 1.124.827.321.331.562.827.722 1.323.161.496.241 1.157.241 1.819 0 .909-.16 1.736-.482 2.315-.321.661-.722 1.157-1.204 1.488a3.354 3.354 0 01-1.765.496c-.562 0-1.044-.165-1.526-.413a2.233 2.233 0 01-1.043-1.075V522h-1.365v-10.748zm1.204 3.968c0 .745.081 1.323.321 1.819.241.496.482.827.883 1.075.402.248.723.331 1.204.331.643 0 1.204-.248 1.606-.827.401-.579.642-1.405.642-2.48 0-.744-.08-1.323-.321-1.819a2.47 2.47 0 00-.803-1.158 2.12 2.12 0 00-1.204-.413c-.642 0-1.124.248-1.605.744-.482.661-.723 1.488-.723 2.728zM261.6 517.618l4.013-6.366h1.525v8.02h-1.364v-6.449l-4.014 6.366h-1.525v-8.02h1.365v6.449zM274.523 516.378h1.284c-.08.827-.401 1.571-.882 2.232-.482.662-1.365.992-2.489.992-1.445 0-2.488-.496-2.97-1.405-.562-.91-.802-1.902-.802-2.977 0-.661.08-1.322.321-1.901.16-.662.562-1.158 1.123-1.654.562-.413 1.285-.661 2.248-.661 1.043 0 1.926.248 2.408.826.562.579.883 1.241.963 1.985h-1.284c-.08-.496-.321-.91-.642-1.323-.321-.331-.803-.496-1.525-.496-.562 0-1.044.165-1.365.413-.321.331-.562.662-.722 1.158-.161.496-.241.992-.241 1.653 0 .579.08 1.158.241 1.654.16.496.401.909.802 1.24.321.331.803.496 1.365.496.722 0 1.204-.248 1.525-.661a3.636 3.636 0 00.642-1.571zM278.938 512.244h-2.648v-.992h6.742v.992h-2.729v7.028h-1.365v-7.028zM285.039 513.567h-1.285c0-.497.081-.91.322-1.323.24-.414.561-.744 1.043-.992.482-.249 1.124-.414 1.926-.414 2.087 0 3.051.91 3.051 2.729l-.081 3.72c0 .248 0 .496.081.579 0 .165.08.248.241.248.08.083.321.083.561.083v.992c-.16 0-.401.083-.642.083-.401 0-.722-.083-.963-.248-.241-.166-.401-.497-.401-.91a2.726 2.726 0 01-1.204 1.158 4.44 4.44 0 01-1.445.248c-1.124 0-1.846-.248-2.248-.745-.401-.496-.481-1.074-.481-1.653 0-.331.08-.662.16-.91s.241-.496.562-.744c.321-.248.642-.413 1.124-.579.481-.165 1.124-.248 1.926-.33.482-.083.803-.083.964-.083a.44.44 0 00.401-.248c.08-.165.16-.413.16-.744 0-.662-.16-1.158-.561-1.323-.402-.165-.803-.331-1.124-.331-.482 0-.883.083-1.365.331-.562.248-.722.744-.722 1.406zm3.692 2.232v-.661c-.16.082-.241.165-.401.165-.08 0-.321.083-.642.083-.642.082-1.204.165-1.606.248-.401.082-.722.248-.963.496s-.321.578-.321.992c0 .331.08.661.321.992.241.331.642.496 1.204.496.642 0 1.124-.165 1.525-.496.321-.331.562-.661.723-1.075.08-.413.16-.827.16-1.24zM293.467 515.468v3.721h-1.365v-8.02h1.365v3.307h3.853v-3.307h1.364v8.02h-1.364v-3.721h-3.853zM301.895 515.468v3.721h-1.365v-8.02h1.365v3.307h3.853v-3.307h1.364v8.02h-1.364v-3.721h-3.853zM312.009 516.047l-2.007 3.142h-1.445l2.087-3.142c-.482-.083-1.043-.248-1.445-.579-.481-.33-.642-.909-.642-1.736 0-.413.08-.827.241-1.24.16-.413.401-.662.803-.91.401-.248.883-.33 1.525-.33h3.853v8.02h-1.365v-3.142h-1.605v-.083zm1.605-3.803h-1.926c-.482 0-.883.083-1.285.248-.321.165-.562.579-.562 1.24 0 .331.161.662.402.992.241.331.722.414 1.445.414h1.926v-2.894z" fill="#fff"/></svg>