<svg width="176" height="59" viewBox="0 0 176 59" fill="none" xmlns="http://www.w3.org/2000/svg">
<g clip-path="url(#clip0)">
<path fill-rule="evenodd" clip-rule="evenodd" d="M63.9077 19.3991V32.384H65.8242V24.992C65.8242 21.1591 68.4055 20.9244 71.4562 20.9244C74.5068 20.9244 76.6971 21.0418 76.6971 24.5618V32.384H78.6526V24.5618C78.6526 21.1982 81.3122 20.9244 83.9326 20.9244H84.5584C87.5308 20.9244 89.5255 21.2373 89.5255 24.5618V32.384H91.4811V24.5618C91.4811 19.712 88.4304 19.2036 84.3237 19.2036C81.7815 19.2036 79.2002 19.2818 78.0659 21.9413C76.9708 19.2036 74.0375 19.2036 71.4953 19.2036H71.1042C69.0704 19.2036 66.7237 19.3209 65.8242 21.5111V19.3991H63.9077Z" fill="#FB4073"/>
<path fill-rule="evenodd" clip-rule="evenodd" d="M108.572 32.3839V24.2879C108.572 22.1368 108.259 20.2986 105.835 19.7119C103.41 19.1253 102.119 19.2035 100.242 19.2035C99.235 19.2114 98.2295 19.2767 97.2302 19.399C94.5706 19.5946 93.3582 20.455 93.3582 23.271H95.4702C95.4702 21.9804 95.8613 21.2764 97.2302 21.0808C98.4772 20.9507 99.7312 20.8984 100.985 20.9244C102.354 20.9244 104.739 20.9635 105.6 21.5501C106.46 22.1368 106.617 23.5839 106.617 24.7181V26.1261C105.835 25.031 105.209 24.7573 103.84 24.679L100.163 24.5617C98.9228 24.5161 97.6804 24.5684 96.4479 24.7181C93.671 24.9528 92.7715 25.8915 92.7715 28.7075C92.7715 32.2666 95.6266 32.5404 98.4426 32.5404H103.683C104.974 32.423 105.952 32.071 106.617 30.8977V32.423L108.572 32.3839ZM94.8444 28.7075C94.8444 27.8861 95.0008 27.0257 95.9004 26.7519C96.7999 26.4781 98.951 26.2826 100.203 26.2826H101.923C103.214 26.2826 104.739 26.3999 105.6 26.7519C105.924 26.9233 106.191 27.1838 106.372 27.5027C106.552 27.8215 106.637 28.1853 106.617 28.551C106.662 29.0208 106.525 29.4899 106.233 29.8612C105.942 30.2325 105.519 30.4776 105.052 30.5457C103.762 30.8977 101.532 30.8977 100.124 30.8977H97.8559C96.2915 30.7413 94.8444 30.6239 94.8444 28.7075Z" fill="#FB4073"/>
<path fill-rule="evenodd" clip-rule="evenodd" d="M117.724 24.3662L112.64 19.3991H109.746L116.277 25.5004L108.963 32.384H111.818L117.724 26.6738L123.552 32.384H126.368L119.171 25.5004L125.703 19.3991H122.809L117.724 24.3662Z" fill="#FB4073"/>
<path fill-rule="evenodd" clip-rule="evenodd" d="M131.257 19.3991V16.4658H129.34V19.3991H126.211V21.0418H129.34V28.2382C129.34 32.2666 131.804 32.5404 135.168 32.5404C140.331 32.5404 140.565 31.0151 140.565 26.6346H138.805V28.1209C138.805 30.7022 137.084 30.8587 134.933 30.8587C132.078 30.8587 131.257 30.2329 131.257 27.2995V21.0418H140.213V19.3991H131.257Z" fill="#FB4073"/>
<path fill-rule="evenodd" clip-rule="evenodd" d="M157.892 26.2044C157.892 26.0089 157.931 25.7742 157.931 25.5396C157.931 19.4773 154.919 19.4382 149.796 19.2036H148.427C143.264 19.2036 141.348 20.5333 141.348 25.9307C141.348 32.5796 145.181 32.5796 150.539 32.5796C153.589 32.5796 157.892 32.4622 157.892 28.512H155.858C155.871 28.9213 155.758 29.3247 155.534 29.6676C155.31 30.0105 154.986 30.2761 154.606 30.4284C153.589 30.8587 152.064 30.8978 150.813 30.8978H149.717C148.487 30.9378 147.256 30.8592 146.041 30.6631C143.577 30.1547 143.381 28.3947 143.303 26.2436L157.892 26.2044ZM155.897 24.5618H143.381C143.421 23.6231 143.499 22.528 144.281 21.9022C145.063 21.2764 147.488 20.9244 149.053 20.9244H150.578C152.064 20.9244 154.098 21.0027 155.037 21.9413C155.975 22.88 155.858 23.6231 155.897 24.5618Z" fill="#FB4073"/>
<path fill-rule="evenodd" clip-rule="evenodd" d="M173.145 27.7298C173.067 29.2551 172.48 30.1938 170.915 30.5458C169.821 30.766 168.707 30.8709 167.591 30.8587C166.255 30.8517 164.922 30.7471 163.602 30.5458C161.02 30.1938 160.903 28.1209 160.903 26.048C160.85 25.0082 160.955 23.9663 161.216 22.9582C161.318 22.6084 161.498 22.2861 161.741 22.0153C161.985 21.7444 162.287 21.532 162.624 21.3938C163.836 20.9244 165.675 20.9244 166.965 20.9244H167.278C168.53 20.9244 170.681 20.9636 171.659 21.5111C172.636 22.0587 172.91 22.88 172.91 23.936H174.944C174.944 19.008 170.603 19.3209 166.965 19.2036H165.792C163.523 19.2036 160.903 19.5164 159.534 21.6676C158.83 22.8018 158.791 24.6791 158.791 26.048C158.791 31.8364 161.881 32.5796 166.926 32.5796H169.077C172.558 32.5013 175.061 31.7973 175.139 27.808L173.145 27.7298Z" fill="#FB4073"/>
<path d="M0.391113 31.4061C0.391113 30.2381 0.737481 29.0963 1.38642 28.1251C2.03535 27.1539 2.95771 26.3969 4.03685 25.9499C5.11599 25.5029 6.30344 25.386 7.44905 25.6138C8.59466 25.8417 9.64697 26.4042 10.4729 27.2301C11.2988 28.0561 11.8613 29.1084 12.0892 30.254C12.3171 31.3996 12.2001 32.5871 11.7531 33.6662C11.3061 34.7453 10.5492 35.6677 9.57797 36.3166C8.60677 36.9656 7.46494 37.3119 6.29689 37.3119C4.73375 37.3017 3.23754 36.6762 2.1322 35.5708C1.02687 34.4655 0.401364 32.9693 0.391113 31.4061Z" fill="#FB4073"/>
<path d="M44.7038 3.98936C44.6961 3.27443 44.9015 2.5734 45.2939 1.97572C45.6863 1.37804 46.2478 0.910802 46.9069 0.633626C47.566 0.35645 48.2927 0.281901 48.9943 0.41949C49.6959 0.557079 50.3406 0.900567 50.8462 1.40613C51.3517 1.91169 51.6952 2.55641 51.8328 3.25802C51.9704 3.95963 51.8958 4.68633 51.6187 5.34539C51.3415 6.00445 50.8743 6.566 50.2766 6.95838C49.6789 7.35077 48.9779 7.5562 48.2629 7.54847C47.319 7.54847 46.4137 7.17349 45.7463 6.50603C45.0788 5.83857 44.7038 4.93329 44.7038 3.98936Z" fill="#FB4073"/>
<path d="M44.4303 50.6489C44.4225 49.1294 44.8665 47.642 45.7059 46.3754C46.5452 45.1087 47.7421 44.1202 49.1444 43.5351C50.5467 42.9501 52.0912 42.795 53.5819 43.0895C55.0725 43.384 56.442 44.1149 57.5165 45.1894C58.5909 46.2638 59.3218 47.6333 59.6163 49.1239C59.9109 50.6146 59.7558 52.1591 59.1707 53.5615C58.5857 54.9638 57.5971 56.1606 56.3305 56.9999C55.0639 57.8393 53.5764 58.2833 52.0569 58.2756C50.0342 58.2756 48.0943 57.472 46.6641 56.0418C45.2338 54.6115 44.4303 52.6716 44.4303 50.6489Z" fill="#FB4073"/>
<path d="M15.3706 24.9138C15.3629 21.2671 16.4377 17.7001 18.4589 14.6647C20.4801 11.6294 23.3567 9.26222 26.7244 7.8631C30.092 6.46399 33.7992 6.09589 37.3762 6.80544C40.9532 7.51498 44.2392 9.27024 46.8178 11.8489C49.3964 14.4275 51.1517 17.7134 51.8612 21.2905C52.5708 24.8675 52.2027 28.5746 50.8035 31.9423C49.4044 35.3099 47.0373 38.1866 44.0019 40.2078C40.9665 42.2289 37.3996 43.3037 33.7529 43.296C28.8808 43.2857 24.2112 41.3457 20.7661 37.9006C17.321 34.4555 15.381 29.7859 15.3706 24.9138Z" fill="#FB4073"/>
</g>
<defs>
<clipPath id="clip0">
<rect width="176" height="58.6667" fill="white"/>
</clipPath>
</defs>
</svg>
