<svg width="277" height="93" fill="none" xmlns="http://www.w3.org/2000/svg"><path fill-rule="evenodd" clip-rule="evenodd" d="M100.582 30.532v20.436h3.016V39.334c0-6.033 4.063-6.402 8.864-6.402 4.801 0 8.248.185 8.248 5.725v12.311h3.078V38.657c0-5.294 4.186-5.725 8.31-5.725h.985c4.678 0 7.818.493 7.818 5.725v12.311h3.077V38.657c0-7.633-4.801-8.433-11.264-8.433-4.001 0-8.064.123-9.849 4.309-1.724-4.31-6.34-4.31-10.341-4.31h-.616c-3.201 0-6.894.185-8.31 3.633V30.53h-3.016zM170.878 50.968V38.226c0-3.386-.492-6.279-4.309-7.202-3.816-.923-5.847-.8-8.802-.8a41.723 41.723 0 00-4.74.308c-4.186.307-6.094 1.662-6.094 6.094h3.324c0-2.032.616-3.14 2.77-3.448a47.44 47.44 0 015.909-.246c2.155 0 5.91.062 7.264.985s1.6 3.2 1.6 4.986v2.216c-1.231-1.724-2.216-2.154-4.37-2.277l-5.786-.185a37.175 37.175 0 00-5.848.246c-4.37.37-5.786 1.847-5.786 6.279 0 5.601 4.493 6.032 8.925 6.032h8.249c2.031-.184 3.57-.739 4.616-2.585v2.4l3.078-.061zm-21.606-5.786c0-1.293.246-2.647 1.662-3.078 1.416-.43 4.802-.739 6.771-.739h2.709c2.031 0 4.432.185 5.786.739a3.018 3.018 0 011.6 2.832 2.894 2.894 0 01-2.462 3.139c-2.031.554-5.54.554-7.756.554h-3.57c-2.462-.246-4.74-.431-4.74-3.447zM185.282 38.35l-8.002-7.818h-4.555l10.28 9.602-11.511 10.834h4.493l9.295-8.987 9.172 8.987h4.432L187.56 40.134l10.28-9.602h-4.555l-8.003 7.817zM206.58 30.532v-4.617h-3.016v4.617h-4.924v2.585h4.924v11.326c0 6.34 3.878 6.771 9.172 6.771 8.125 0 8.495-2.4 8.495-9.295h-2.77v2.34c0 4.062-2.709 4.308-6.094 4.308-4.494 0-5.787-.984-5.787-5.601v-9.85h14.097v-2.584H206.58zM248.5 41.242c0-.308.061-.677.061-1.046 0-9.541-4.74-9.603-12.803-9.972h-2.155c-8.125 0-11.141 2.093-11.141 10.587 0 10.465 6.032 10.465 14.465 10.465 4.802 0 11.573-.185 11.573-6.402h-3.201a3.142 3.142 0 01-1.97 3.016c-1.6.677-4.001.739-5.971.739h-1.723a30.162 30.162 0 01-5.787-.37c-3.878-.8-4.185-3.57-4.309-6.955l22.961-.062zm-3.14-2.585h-19.697c.061-1.477.184-3.201 1.415-4.186 1.231-.985 5.048-1.539 7.51-1.539h2.401c2.339 0 5.54.123 7.017 1.6 1.477 1.478 1.293 2.648 1.354 4.125zM272.506 43.643c-.123 2.4-1.046 3.878-3.508 4.432a25.12 25.12 0 01-5.232.492 43.154 43.154 0 01-6.279-.492c-4.063-.554-4.247-3.817-4.247-7.079a16.13 16.13 0 01.492-4.863 3.817 3.817 0 012.216-2.462c1.908-.739 4.801-.739 6.833-.739h.492c1.97 0 5.355.062 6.894.923 1.539.862 1.97 2.155 1.97 3.817h3.201c0-7.756-6.833-7.264-12.557-7.448h-1.847c-3.57 0-7.694.492-9.849 3.878-1.108 1.785-1.169 4.74-1.169 6.894 0 9.11 4.862 10.28 12.803 10.28h3.386c5.478-.123 9.418-1.231 9.541-7.51l-3.14-.123z" fill="#231F20"/><path d="M.615 49.43a9.295 9.295 0 119.295 9.294 9.356 9.356 0 01-9.295-9.295zM70.358 6.279a5.663 5.663 0 115.602 5.601 5.601 5.601 0 01-5.602-5.601zM69.927 79.714A12.064 12.064 0 1181.93 91.718a12.003 12.003 0 01-12.003-12.004zM24.192 39.21a28.992 28.992 0 1157.984-.122 28.992 28.992 0 01-57.984.123z" fill="#1197D4"/></svg>