<svg width="40" height="40" fill="none" xmlns="http://www.w3.org/2000/svg"><rect width="40" height="40" rx="6.667" fill="#0627B0"/><path d="M21.612 29.87zm.2-.034l-.12.02.12-.02zm-.673.099zm.191-.023zm.755-.13zm.675-.168l-.085.023.085-.023zm-.204.056l-.093.024.093-.024zm-.268.066l-.098.023.098-.023zm-1.448.229zM30 20c0-5.522-4.478-10-10-10s-10 4.478-10 10 4.478 10 10 10l.176-.002v-7.785h-2.149V19.71h2.149v-1.842c0-2.137 1.304-3.3 3.21-3.3.913 0 1.698.068 1.927.098V16.9h-1.315c-1.037 0-1.238.492-1.238 1.216v1.594h2.48l-.323 2.504H22.76v7.4C26.94 28.416 30 24.565 30 20zm-9.34 9.978zm-.318.016z" fill="#fff"/></svg>