<svg width="40" height="40" fill="none" xmlns="http://www.w3.org/2000/svg"><rect width="40" height="40" rx="6.667" fill="#0627B0"/><path d="M21.914 20a1.914 1.914 0 11-3.828 0 1.914 1.914 0 013.828 0z" fill="#fff"/><path d="M24.476 16.613a1.78 1.78 0 00-.43-.66 1.778 1.778 0 00-.66-.43c-.202-.078-.506-.171-1.066-.197-.605-.028-.787-.034-2.32-.034s-1.715.006-2.32.034c-.56.025-.864.12-1.066.198a1.76 1.76 0 00-.66.43 1.78 1.78 0 00-.43.66c-.079.202-.172.506-.198 1.066-.028.605-.034.787-.034 2.32s.006 1.715.034 2.32c.025.56.12.864.198 1.067.092.25.239.475.43.66.184.19.41.337.66.43.202.078.506.172 1.066.197.605.028.787.034 2.32.034 1.534 0 1.715-.006 2.32-.034.56-.025.864-.119 1.067-.198a1.9 1.9 0 001.09-1.09c.078-.202.172-.506.197-1.066.028-.605.034-.787.034-2.32s-.006-1.715-.034-2.32c-.025-.56-.119-.864-.198-1.067zM20 22.95a2.949 2.949 0 110-5.898 2.949 2.949 0 010 5.898zm3.065-5.325a.69.69 0 110-1.379.69.69 0 010 1.379z" fill="#fff"/><path d="M20 10c-5.522 0-10 4.478-10 10s4.478 10 10 10 10-4.478 10-10-4.478-10-10-10zm5.708 12.367c-.028.612-.125 1.029-.267 1.394a2.936 2.936 0 01-1.68 1.68c-.365.142-.782.239-1.393.267-.613.027-.808.034-2.368.034-1.56 0-1.755-.007-2.367-.034-.611-.028-1.029-.125-1.394-.267a2.814 2.814 0 01-1.017-.663 2.815 2.815 0 01-.662-1.017c-.142-.365-.24-.782-.267-1.393-.029-.613-.035-.809-.035-2.368 0-1.56.006-1.755.034-2.367.028-.612.125-1.029.267-1.394.144-.383.37-.73.663-1.017a2.813 2.813 0 011.017-.663c.365-.142.782-.239 1.394-.267.612-.027.808-.034 2.367-.034 1.56 0 1.755.007 2.367.035.612.027 1.029.124 1.394.266.383.144.73.37 1.017.663.293.287.519.634.663 1.017.142.365.239.782.267 1.394.028.612.034.808.034 2.367 0 1.56-.006 1.755-.034 2.367z" fill="#fff"/></svg>